<svg width="14" height="12" viewBox="0 0 14 12" fill="none" xmlns="http://www.w3.org/2000/svg">
<path d="M11.7601 5.36979L11.0183 4.57979C10.8765 4.42979 10.7619 4.14979 10.7619 3.94979V3.09979C10.7619 2.56979 10.2874 2.13479 9.70921 2.13479H8.78193C8.56921 2.13479 8.2583 2.02979 8.09466 1.89979L7.23284 1.21979C6.85648 0.924785 6.24011 0.924785 5.8583 1.21979L5.00193 1.90479C4.8383 2.02979 4.52739 2.13479 4.31466 2.13479H3.37102C2.79284 2.13479 2.3183 2.56979 2.3183 3.09979V3.95479C2.3183 4.14979 2.20375 4.42979 2.06739 4.57979L1.33102 5.37479C1.01466 5.71979 1.01466 6.27979 1.33102 6.62479L2.06739 7.41979C2.20375 7.56979 2.3183 7.84979 2.3183 8.04479V8.89979C2.3183 9.42979 2.79284 9.86479 3.37102 9.86479H4.31466C4.52739 9.86479 4.8383 9.96979 5.00193 10.0998L5.86375 10.7798C6.24011 11.0748 6.85648 11.0748 7.2383 10.7798L8.10011 10.0998C8.26375 9.96979 8.56921 9.86479 8.78739 9.86479H9.71466C10.2928 9.86479 10.7674 9.42979 10.7674 8.89979V8.04979C10.7674 7.85479 10.8819 7.56979 11.0238 7.41979L11.7656 6.62979C12.0819 6.28479 12.0819 5.71479 11.7601 5.36979ZM8.81466 5.05479L6.18011 7.46979C6.10375 7.53979 6.00011 7.57979 5.89102 7.57979C5.78193 7.57979 5.6783 7.53979 5.60193 7.46979L4.28193 6.25979C4.12375 6.11479 4.12375 5.87479 4.28193 5.72979C4.44011 5.58479 4.70193 5.58479 4.86011 5.72979L5.89102 6.67479L8.23648 4.52479C8.39466 4.37979 8.65648 4.37979 8.81466 4.52479C8.97284 4.66979 8.97284 4.90979 8.81466 5.05479Z" fill="#003630"/>
</svg>
