<svg width="446" height="49" viewBox="0 0 223 49" fill="none" xmlns="http://www.w3.org/2000/svg">
<g filter="url(#filter0_d_1128_10247)">
<path d="M26.3787 23.5429L16.0429 13.2071C15.6524 12.8166 15.0192 12.8166 14.6287 13.2071L4.29292 23.5429C3.9024 23.9334 3.9024 24.5666 4.29292 24.9571L14.6287 35.2929C15.0192 35.6834 15.6524 35.6834 16.0429 35.2929L26.3787 24.9571C26.7692 24.5666 26.7692 23.9334 26.3787 23.5429Z" fill="#003630"/>
<path d="M27.0859 22.8359C27.8669 23.617 27.8669 24.8833 27.0859 25.6643L16.75 36.0003C15.969 36.7811 14.7026 36.7811 13.9216 36.0003L3.58569 25.6643C2.80468 24.8833 2.80477 23.617 3.58569 22.8359L13.9216 12.5C14.7027 11.719 15.969 11.719 16.75 12.5L27.0859 22.8359Z" stroke="white" stroke-width="2"/>
</g>
<path d="M9.92859 23.7128L14.8887 18.7527C15.0839 18.5575 15.4005 18.5575 15.5958 18.7527L20.5097 23.6666" stroke="#95E36C" stroke-width="2" stroke-linecap="round" stroke-linejoin="round"/>
<path d="M42.0438 34V17.2H46.7798V20.048H46.9718C47.2705 19.152 47.7825 18.3947 48.5078 17.776C49.2331 17.136 50.2251 16.816 51.4838 16.816C52.6358 16.816 53.6171 17.104 54.4278 17.68C55.2385 18.256 55.8251 19.0987 56.1878 20.208H56.2838C56.4331 19.7387 56.6571 19.3013 56.9558 18.896C57.2758 18.4693 57.6598 18.1067 58.1078 17.808C58.5558 17.5093 59.0571 17.2747 59.6118 17.104C60.1665 16.912 60.7638 16.816 61.4038 16.816C63.0252 16.816 64.2625 17.392 65.1158 18.544C65.9905 19.696 66.4278 21.3387 66.4278 23.472V34H61.6918V23.856C61.6918 21.7227 60.9238 20.656 59.3878 20.656C58.6838 20.656 58.0438 20.8587 57.4678 21.264C56.8918 21.6693 56.6038 22.288 56.6038 23.12V34H51.8678V23.856C51.8678 21.7227 51.0998 20.656 49.5638 20.656C49.2225 20.656 48.8811 20.7093 48.5398 20.816C48.2198 20.9013 47.9211 21.0507 47.6438 21.264C47.3878 21.4773 47.1745 21.744 47.0038 22.064C46.8545 22.3627 46.7798 22.7147 46.7798 23.12V34H42.0438ZM83.0536 34C82.2002 34 81.4856 33.7333 80.9096 33.2C80.3549 32.6667 80.0029 31.952 79.8536 31.056H79.6616C79.4056 32.144 78.8402 32.976 77.9656 33.552C77.0909 34.1067 76.0136 34.384 74.7336 34.384C73.0482 34.384 71.7576 33.936 70.8616 33.04C69.9656 32.144 69.5176 30.96 69.5176 29.488C69.5176 27.7173 70.1576 26.4053 71.4376 25.552C72.7389 24.6773 74.4989 24.24 76.7176 24.24H79.3736V23.184C79.3736 22.3733 79.1602 21.7333 78.7336 21.264C78.3069 20.7733 77.5922 20.528 76.5896 20.528C75.6509 20.528 74.9042 20.7307 74.3496 21.136C73.7949 21.5413 73.3362 22 72.9736 22.512L70.1576 20.016C70.8402 19.0133 71.6936 18.2347 72.7176 17.68C73.7629 17.104 75.1709 16.816 76.9416 16.816C79.3309 16.816 81.1229 17.3387 82.3176 18.384C83.5122 19.4293 84.1096 20.9547 84.1096 22.96V30.32H85.6776V34H83.0536ZM76.4936 31.088C77.2829 31.088 77.9549 30.9173 78.5096 30.576C79.0856 30.2347 79.3736 29.68 79.3736 28.912V26.928H77.0696C75.2136 26.928 74.2856 27.5573 74.2856 28.816V29.296C74.2856 29.9147 74.4776 30.3733 74.8616 30.672C75.2456 30.9493 75.7896 31.088 76.4936 31.088ZM94.5523 34.384C92.931 34.384 91.5656 34.128 90.4563 33.616C89.347 33.0827 88.355 32.336 87.4803 31.376L90.2643 28.56C90.8616 29.2213 91.523 29.744 92.2483 30.128C92.9736 30.512 93.795 30.704 94.7123 30.704C95.651 30.704 96.3016 30.5653 96.6643 30.288C97.027 29.9893 97.2083 29.5947 97.2083 29.104C97.2083 28.3147 96.643 27.8453 95.5123 27.696L93.6883 27.472C89.9123 27.0027 88.0243 25.2747 88.0243 22.288C88.0243 21.4773 88.1736 20.7413 88.4723 20.08C88.7923 19.3973 89.2296 18.8213 89.7843 18.352C90.3603 17.8613 91.043 17.488 91.8323 17.232C92.643 16.9547 93.5496 16.816 94.5523 16.816C95.427 16.816 96.195 16.88 96.8563 17.008C97.539 17.1147 98.1363 17.2853 98.6483 17.52C99.1816 17.7333 99.6616 18.0107 100.088 18.352C100.536 18.672 100.974 19.0347 101.4 19.44L98.6803 22.224C98.147 21.6907 97.539 21.2747 96.8563 20.976C96.195 20.656 95.5123 20.496 94.8083 20.496C93.9976 20.496 93.4216 20.624 93.0803 20.88C92.739 21.136 92.5683 21.4773 92.5683 21.904C92.5683 22.352 92.6856 22.704 92.9203 22.96C93.1763 23.1947 93.6456 23.3653 94.3283 23.472L96.2163 23.728C99.907 24.2187 101.752 25.904 101.752 28.784C101.752 29.5947 101.582 30.3413 101.24 31.024C100.899 31.7067 100.408 32.304 99.7683 32.816C99.1496 33.3067 98.3923 33.6907 97.4963 33.968C96.6216 34.2453 95.6403 34.384 94.5523 34.384ZM110.619 34C108.977 34 107.729 33.584 106.875 32.752C106.043 31.92 105.627 30.704 105.627 29.104V20.88H103.259V17.2H104.443C105.083 17.2 105.521 17.0507 105.755 16.752C105.99 16.432 106.107 15.984 106.107 15.408V12.656H110.363V17.2H113.691V20.88H110.363V30.32H113.435V34H110.619ZM123.864 34.384C122.584 34.384 121.443 34.1813 120.44 33.776C119.438 33.3493 118.584 32.7627 117.88 32.016C117.198 31.248 116.675 30.32 116.312 29.232C115.971 28.144 115.8 26.928 115.8 25.584C115.8 24.2613 115.971 23.0667 116.312 22C116.654 20.912 117.155 19.984 117.816 19.216C118.499 18.448 119.331 17.8613 120.312 17.456C121.294 17.0293 122.414 16.816 123.672 16.816C125.059 16.816 126.243 17.0507 127.224 17.52C128.227 17.9893 129.038 18.6187 129.656 19.408C130.296 20.1973 130.755 21.1147 131.032 22.16C131.331 23.184 131.48 24.2613 131.48 25.392V26.8H120.696V27.056C120.696 28.1653 120.995 29.0507 121.592 29.712C122.19 30.352 123.128 30.672 124.408 30.672C125.39 30.672 126.19 30.48 126.808 30.096C127.427 29.6907 128.003 29.2107 128.536 28.656L130.904 31.6C130.158 32.4747 129.176 33.1573 127.96 33.648C126.766 34.1387 125.4 34.384 123.864 34.384ZM123.768 20.304C122.808 20.304 122.051 20.624 121.496 21.264C120.963 21.8827 120.696 22.7147 120.696 23.76V24.016H126.584V23.728C126.584 22.704 126.35 21.8827 125.88 21.264C125.432 20.624 124.728 20.304 123.768 20.304ZM134.825 34V17.2H139.561V20.848H139.721C139.806 20.3787 139.956 19.9307 140.169 19.504C140.382 19.056 140.66 18.6613 141.001 18.32C141.364 17.9787 141.79 17.712 142.281 17.52C142.772 17.3067 143.348 17.2 144.009 17.2H144.841V21.616H143.657C142.27 21.616 141.236 21.7973 140.553 22.16C139.892 22.5227 139.561 23.1947 139.561 24.176V34H134.825ZM147.251 26.544V21.936H156.755V26.544H147.251ZM161.501 20.88H159.133V17.2H161.501V15.216C161.501 13.5947 161.927 12.3787 162.781 11.568C163.634 10.736 164.882 10.32 166.525 10.32H169.597V14H166.237V17.2H169.597V20.88H166.237V34H161.501V20.88ZM179.114 34.384C177.834 34.384 176.693 34.1813 175.69 33.776C174.688 33.3493 173.834 32.7627 173.13 32.016C172.448 31.248 171.925 30.32 171.562 29.232C171.221 28.144 171.05 26.928 171.05 25.584C171.05 24.2613 171.221 23.0667 171.562 22C171.904 20.912 172.405 19.984 173.066 19.216C173.749 18.448 174.581 17.8613 175.562 17.456C176.544 17.0293 177.664 16.816 178.922 16.816C180.309 16.816 181.493 17.0507 182.474 17.52C183.477 17.9893 184.288 18.6187 184.906 19.408C185.546 20.1973 186.005 21.1147 186.282 22.16C186.581 23.184 186.73 24.2613 186.73 25.392V26.8H175.946V27.056C175.946 28.1653 176.245 29.0507 176.842 29.712C177.44 30.352 178.378 30.672 179.658 30.672C180.64 30.672 181.44 30.48 182.058 30.096C182.677 29.6907 183.253 29.2107 183.786 28.656L186.154 31.6C185.408 32.4747 184.426 33.1573 183.21 33.648C182.016 34.1387 180.65 34.384 179.114 34.384ZM179.018 20.304C178.058 20.304 177.301 20.624 176.746 21.264C176.213 21.8827 175.946 22.7147 175.946 23.76V24.016H181.834V23.728C181.834 22.704 181.6 21.8827 181.13 21.264C180.682 20.624 179.978 20.304 179.018 20.304ZM197.083 34.384C195.803 34.384 194.662 34.1813 193.659 33.776C192.656 33.3493 191.803 32.7627 191.099 32.016C190.416 31.248 189.894 30.32 189.531 29.232C189.19 28.144 189.019 26.928 189.019 25.584C189.019 24.2613 189.19 23.0667 189.531 22C189.872 20.912 190.374 19.984 191.035 19.216C191.718 18.448 192.55 17.8613 193.531 17.456C194.512 17.0293 195.632 16.816 196.891 16.816C198.278 16.816 199.462 17.0507 200.443 17.52C201.446 17.9893 202.256 18.6187 202.875 19.408C203.515 20.1973 203.974 21.1147 204.251 22.16C204.55 23.184 204.699 24.2613 204.699 25.392V26.8H193.915V27.056C193.915 28.1653 194.214 29.0507 194.811 29.712C195.408 30.352 196.347 30.672 197.627 30.672C198.608 30.672 199.408 30.48 200.027 30.096C200.646 29.6907 201.222 29.2107 201.755 28.656L204.123 31.6C203.376 32.4747 202.395 33.1573 201.179 33.648C199.984 34.1387 198.619 34.384 197.083 34.384ZM196.987 20.304C196.027 20.304 195.27 20.624 194.715 21.264C194.182 21.8827 193.915 22.7147 193.915 23.76V24.016H199.803V23.728C199.803 22.704 199.568 21.8827 199.099 21.264C198.651 20.624 197.947 20.304 196.987 20.304ZM213.74 34.384C212.118 34.384 210.753 34.128 209.644 33.616C208.534 33.0827 207.542 32.336 206.668 31.376L209.452 28.56C210.049 29.2213 210.71 29.744 211.436 30.128C212.161 30.512 212.982 30.704 213.9 30.704C214.838 30.704 215.489 30.5653 215.852 30.288C216.214 29.9893 216.396 29.5947 216.396 29.104C216.396 28.3147 215.83 27.8453 214.7 27.696L212.876 27.472C209.1 27.0027 207.212 25.2747 207.212 22.288C207.212 21.4773 207.361 20.7413 207.66 20.08C207.98 19.3973 208.417 18.8213 208.972 18.352C209.548 17.8613 210.23 17.488 211.02 17.232C211.83 16.9547 212.737 16.816 213.74 16.816C214.614 16.816 215.382 16.88 216.044 17.008C216.726 17.1147 217.324 17.2853 217.836 17.52C218.369 17.7333 218.849 18.0107 219.276 18.352C219.724 18.672 220.161 19.0347 220.588 19.44L217.868 22.224C217.334 21.6907 216.726 21.2747 216.044 20.976C215.382 20.656 214.7 20.496 213.996 20.496C213.185 20.496 212.609 20.624 212.268 20.88C211.926 21.136 211.756 21.4773 211.756 21.904C211.756 22.352 211.873 22.704 212.108 22.96C212.364 23.1947 212.833 23.3653 213.516 23.472L215.404 23.728C219.094 24.2187 220.94 25.904 220.94 28.784C220.94 29.5947 220.769 30.3413 220.428 31.024C220.086 31.7067 219.596 32.304 218.956 32.816C218.337 33.3067 217.58 33.6907 216.684 33.968C215.809 34.2453 214.828 34.384 213.74 34.384Z" fill="white"/>
<defs>
<filter id="filter0_d_1128_10247" x="0" y="10.9143" width="30.6716" height="30.6714" filterUnits="userSpaceOnUse" color-interpolation-filters="sRGB">
<feFlood flood-opacity="0" result="BackgroundImageFix"/>
<feColorMatrix in="SourceAlpha" type="matrix" values="0 0 0 0 0 0 0 0 0 0 0 0 0 0 0 0 0 0 127 0" result="hardAlpha"/>
<feOffset dy="2"/>
<feGaussianBlur stdDeviation="1"/>
<feComposite in2="hardAlpha" operator="out"/>
<feColorMatrix type="matrix" values="0 0 0 0 0 0 0 0 0 0 0 0 0 0 0 0 0 0 0.25 0"/>
<feBlend mode="normal" in2="BackgroundImageFix" result="effect1_dropShadow_1128_10247"/>
<feBlend mode="normal" in="SourceGraphic" in2="effect1_dropShadow_1128_10247" result="shape"/>
</filter>
</defs>
</svg>
