<svg width="15" height="15" viewBox="0 0 15 15" fill="none" xmlns="http://www.w3.org/2000/svg">
<path d="M7.5 9.375C8.53553 9.375 9.375 8.53553 9.375 7.5C9.375 6.46447 8.53553 5.625 7.5 5.625C6.46447 5.625 5.625 6.46447 5.625 7.5C5.625 8.53553 6.46447 9.375 7.5 9.375Z" stroke="#171717" stroke-miterlimit="10" stroke-linecap="round" stroke-linejoin="round"/>
<path d="M1.25 8.0499V6.9499C1.25 6.2999 1.78125 5.7624 2.4375 5.7624C3.56875 5.7624 4.03125 4.9624 3.4625 3.98115C3.1375 3.41865 3.33125 2.6874 3.9 2.3624L4.98125 1.74365C5.475 1.4499 6.1125 1.6249 6.40625 2.11865L6.475 2.2374C7.0375 3.21865 7.9625 3.21865 8.53125 2.2374L8.6 2.11865C8.89375 1.6249 9.53125 1.4499 10.025 1.74365L11.1063 2.3624C11.675 2.6874 11.8687 3.41865 11.5437 3.98115C10.975 4.9624 11.4375 5.7624 12.5688 5.7624C13.2188 5.7624 13.7563 6.29365 13.7563 6.9499V8.0499C13.7563 8.6999 13.225 9.2374 12.5688 9.2374C11.4375 9.2374 10.975 10.0374 11.5437 11.0186C11.8687 11.5874 11.675 12.3124 11.1063 12.6374L10.025 13.2561C9.53125 13.5499 8.89375 13.3749 8.6 12.8812L8.53125 12.7624C7.96875 11.7811 7.04375 11.7811 6.475 12.7624L6.40625 12.8812C6.1125 13.3749 5.475 13.5499 4.98125 13.2561L3.9 12.6374C3.33125 12.3124 3.1375 11.5811 3.4625 11.0186C4.03125 10.0374 3.56875 9.2374 2.4375 9.2374C1.78125 9.2374 1.25 8.6999 1.25 8.0499Z" stroke="#171717" stroke-miterlimit="10" stroke-linecap="round" stroke-linejoin="round"/>
</svg>