<svg width="15" height="15" viewBox="0 0 15 15" fill="none" xmlns="http://www.w3.org/2000/svg">
<path d="M2.1874 12.8124C2.70615 13.3312 3.54365 13.3312 4.0624 12.8124L12.1874 4.6874C12.7062 4.16865 12.7062 3.33115 12.1874 2.8124C11.6687 2.29365 10.8312 2.29365 10.3124 2.8124L2.1874 10.9374C1.66865 11.4562 1.66865 12.2937 2.1874 12.8124Z" stroke="#171717" stroke-linecap="round" stroke-linejoin="round"/>
<path d="M11.2563 5.61865L9.38135 3.74365" stroke="#171717" stroke-linecap="round" stroke-linejoin="round"/>
<path d="M5.3125 1.525L6.25 1.25L5.975 2.1875L6.25 3.125L5.3125 2.85L4.375 3.125L4.65 2.1875L4.375 1.25L5.3125 1.525Z" stroke="#171717" stroke-width="0.5" stroke-linecap="round" stroke-linejoin="round"/>
<path d="M2.8125 5.275L3.75 5L3.475 5.9375L3.75 6.875L2.8125 6.6L1.875 6.875L2.15 5.9375L1.875 5L2.8125 5.275Z" stroke="#171717" stroke-width="0.5" stroke-linecap="round" stroke-linejoin="round"/>
<path d="M12.1875 8.4L13.125 8.125L12.85 9.0625L13.125 10L12.1875 9.725L11.25 10L11.525 9.0625L11.25 8.125L12.1875 8.4Z" stroke="#171717" stroke-width="0.5" stroke-linecap="round" stroke-linejoin="round"/>
</svg>
