<svg width="15" height="15" viewBox="0 0 15 15" fill="none" xmlns="http://www.w3.org/2000/svg">
<path d="M13.75 3.75V5.2625C13.75 6.25 13.125 6.875 12.1375 6.875H10V2.50625C10 1.8125 10.5688 1.25 11.2625 1.25C11.9438 1.25625 12.5687 1.53125 13.0187 1.98125C13.4687 2.4375 13.75 3.0625 13.75 3.75Z" stroke="#171717" stroke-miterlimit="10" stroke-linecap="round" stroke-linejoin="round"/>
<path d="M1.25 4.375V13.125C1.25 13.6437 1.8375 13.9375 2.25 13.625L3.31875 12.825C3.56875 12.6375 3.91875 12.6625 4.14375 12.8875L5.18125 13.9313C5.425 14.175 5.825 14.175 6.06875 13.9313L7.11875 12.8813C7.3375 12.6625 7.6875 12.6375 7.93125 12.825L9 13.625C9.4125 13.9313 10 13.6375 10 13.125V2.5C10 1.8125 10.5625 1.25 11.25 1.25H4.375H3.75C1.875 1.25 1.25 2.36875 1.25 3.75V4.375Z" stroke="#171717" stroke-miterlimit="10" stroke-linecap="round" stroke-linejoin="round"/>
<path d="M5.625 8.13135H7.5" stroke="#171717" stroke-linecap="round" stroke-linejoin="round"/>
<path d="M5.625 5.63135H7.5" stroke="#171717" stroke-linecap="round" stroke-linejoin="round"/>
<path d="M3.74731 8.125H3.75293" stroke="#171717" stroke-linecap="round" stroke-linejoin="round"/>
<path d="M3.74731 5.625H3.75293" stroke="#171717" stroke-linecap="round" stroke-linejoin="round"/>
</svg>

