<svg width="15" height="15" viewBox="0 0 15 15" fill="none" xmlns="http://www.w3.org/2000/svg">
<path d="M8.125 5.625H4.375" stroke="#171717" stroke-linecap="round" stroke-linejoin="round"/>
<path d="M13.7501 6.85622V8.14376C13.7501 8.48751 13.4751 8.76873 13.1251 8.78123H11.9001C11.2251 8.78123 10.6064 8.28749 10.5501 7.61249C10.5126 7.21874 10.6626 6.84998 10.9251 6.59373C11.1564 6.35623 11.4751 6.21875 11.8251 6.21875H13.1251C13.4751 6.23125 13.7501 6.51247 13.7501 6.85622Z" stroke="#171717" stroke-linecap="round" stroke-linejoin="round"/>
<path d="M10.925 6.59374C10.6625 6.84999 10.5125 7.21875 10.55 7.6125C10.6063 8.2875 11.225 8.78124 11.9 8.78124H13.125V9.6875C13.125 11.5625 11.875 12.8125 10 12.8125H4.375C2.5 12.8125 1.25 11.5625 1.25 9.6875V5.3125C1.25 3.6125 2.275 2.425 3.86875 2.225C4.03125 2.2 4.2 2.1875 4.375 2.1875H10C10.1625 2.1875 10.3188 2.19374 10.4688 2.21874C12.0812 2.40624 13.125 3.6 13.125 5.3125V6.21876H11.825C11.475 6.21876 11.1562 6.35624 10.925 6.59374Z" stroke="#171717" stroke-linecap="round" stroke-linejoin="round"/>
</svg>