<svg width="15" height="15" viewBox="0 0 15 15" fill="none" xmlns="http://www.w3.org/2000/svg">
<path d="M11.3376 13.5125C10.7876 13.675 10.1376 13.75 9.3751 13.75H5.6251C4.8626 13.75 4.2126 13.675 3.6626 13.5125C3.8001 11.8875 5.46885 10.6062 7.5001 10.6062C9.53135 10.6062 11.2001 11.8875 11.3376 13.5125Z" stroke="#171717" stroke-linecap="round" stroke-linejoin="round"/>
<path d="M9.375 1.25H5.625C2.5 1.25 1.25 2.5 1.25 5.625V9.375C1.25 11.7375 1.9625 13.0312 3.6625 13.5125C3.8 11.8875 5.46875 10.6062 7.5 10.6062C9.53125 10.6062 11.2 11.8875 11.3375 13.5125C13.0375 13.0312 13.75 11.7375 13.75 9.375V5.625C13.75 2.5 12.5 1.25 9.375 1.25ZM7.5 8.85624C6.2625 8.85624 5.2625 7.85001 5.2625 6.61251C5.2625 5.37501 6.2625 4.375 7.5 4.375C8.7375 4.375 9.7375 5.37501 9.7375 6.61251C9.7375 7.85001 8.7375 8.85624 7.5 8.85624Z" stroke="#171717" stroke-linecap="round" stroke-linejoin="round"/>
<path d="M9.73745 6.61251C9.73745 7.85001 8.73745 8.85624 7.49995 8.85624C6.26245 8.85624 5.26245 7.85001 5.26245 6.61251C5.26245 5.37501 6.26245 4.375 7.49995 4.375C8.73745 4.375 9.73745 5.37501 9.73745 6.61251Z" stroke="#171717" stroke-linecap="round" stroke-linejoin="round"/>
</svg>
