<svg width="12" height="12" viewBox="0 0 12 12" fill="none" xmlns="http://www.w3.org/2000/svg">
<path d="M10.8192 2.89097L7.36663 0.472698C6.42557 -0.187377 4.98102 -0.151373 4.07592 0.550707L1.07293 2.89697C0.473526 3.36502 0 4.32513 0 5.08122V9.22169C0 10.7519 1.24076 12 2.76923 12H9.23077C10.7592 12 12 10.7579 12 9.22769V5.15923C12 4.34914 11.4785 3.35302 10.8192 2.89097ZM6.44955 9.59973C6.44955 9.84576 6.24575 10.0498 6 10.0498C5.75425 10.0498 5.55045 9.84576 5.55045 9.59973V7.79953C5.55045 7.5535 5.75425 7.34947 6 7.34947C6.24575 7.34947 6.44955 7.5535 6.44955 7.79953V9.59973Z" fill="#003630"/>
</svg>
